<?xml version="1.0" encoding="UTF-8" standalone="no"?>
<svg
   viewBox="0 0 37 37"
   shape-rendering="crispEdges"
   version="1.1"
   id="svg2"
   sodipodi:docname="qrcode.svg"
   inkscape:export-filename="qrcode.png"
   inkscape:export-xdpi="3113.5134"
   inkscape:export-ydpi="3113.5134"
   inkscape:version="1.3.2 (091e20ef0f, 2023-11-25)"
   xmlns:inkscape="http://www.inkscape.org/namespaces/inkscape"
   xmlns:sodipodi="http://sodipodi.sourceforge.net/DTD/sodipodi-0.dtd"
   xmlns="http://www.w3.org/2000/svg"
   xmlns:svg="http://www.w3.org/2000/svg">
  <defs
     id="defs2" />
  <sodipodi:namedview
     id="namedview2"
     pagecolor="#ffffff"
     bordercolor="#666666"
     borderopacity="1.0"
     inkscape:showpageshadow="2"
     inkscape:pageopacity="0.0"
     inkscape:pagecheckerboard="0"
     inkscape:deskcolor="#d1d1d1"
     inkscape:zoom="26.405405"
     inkscape:cx="18.518936"
     inkscape:cy="18.481064"
     inkscape:window-width="1881"
     inkscape:window-height="1478"
     inkscape:window-x="1807"
     inkscape:window-y="243"
     inkscape:window-maximized="0"
     inkscape:current-layer="svg2" />
  <path
     fill="#ffffff"
     d="M0 0h37v37H0z"
     id="path1" />
  <path
     stroke="#000000"
     d="M4 4.5h7m4 0h1m1 0h3m3 0h2m1 0h7M4 5.5h1m5 0h1m6 0h6m1 0h1m1 0h1m5 0h1M4 6.5h1m1 0h3m1 0h1m1 0h1m1 0h1m1 0h2m1 0h1m2 0h3m1 0h1m1 0h3m1 0h1M4 7.5h1m1 0h3m1 0h1m1 0h3m3 0h2m1 0h1m1 0h1m2 0h1m1 0h3m1 0h1M4 8.5h1m1 0h3m1 0h1m1 0h1m1 0h1m1 0h1m2 0h2m2 0h2m1 0h1m1 0h3m1 0h1M4 9.5h1m5 0h1m1 0h1m8 0h2m1 0h1m1 0h1m5 0h1M4 10.5h7m1 0h1m1 0h1m1 0h1m1 0h1m1 0h1m1 0h1m1 0h1m1 0h7M12 11.5h1m5 0h1m1 0h1m2 0h1M4 12.5h1m1 0h5m2 0h1m1 0h2m4 0h1m4 0h5M7 13.5h2m2 0h1m4 0h4m1 0h4m1 0h3m3 0h1M5 14.5h2m2 0h2m1 0h3m2 0h3m2 0h1m1 0h2m1 0h2M4 15.5h2m1 0h1m8 0h2m8 0h4m1 0h1M4 16.5h1m1 0h5m4 0h2m1 0h4m1 0h2m4 0h2M5 17.5h4m2 0h2m1 0h3m3 0h5m1 0h3m3 0h1M6 18.5h1m1 0h1m1 0h1m4 0h1m3 0h3m2 0h2m3 0h2M4 19.5h2m1 0h1m1 0h1m2 0h1m2 0h1m2 0h2m2 0h1m1 0h1m1 0h2m3 0h1M7 20.5h1m2 0h1m1 0h5m2 0h3m1 0h1m5 0h2M4 21.5h1m1 0h4m1 0h2m3 0h3m1 0h9m1 0h1m1 0h1M4 22.5h1m2 0h4m3 0h1m1 0h5m1 0h1m1 0h2m1 0h2m1 0h1M4 23.5h1m1 0h1m4 0h1m2 0h4m2 0h1m7 0h1m2 0h1M4 24.5h1m2 0h1m2 0h3m2 0h2m1 0h1m2 0h2m1 0h5m1 0h3M12 25.5h4m5 0h2m1 0h1m3 0h5M4 26.5h7m3 0h2m3 0h3m1 0h2m1 0h1m1 0h3M4 27.5h1m5 0h1m1 0h1m5 0h3m1 0h3m3 0h1m2 0h2M4 28.5h1m1 0h3m1 0h1m1 0h2m1 0h2m4 0h1m2 0h5m1 0h2M4 29.5h1m1 0h3m1 0h1m1 0h1m2 0h1m1 0h2m1 0h1m1 0h2m5 0h4M4 30.5h1m1 0h3m1 0h1m1 0h4m1 0h7m1 0h7M4 31.5h1m5 0h1m2 0h6m1 0h1m3 0h1m1 0h1m2 0h1m1 0h1M4 32.5h7m1 0h4m5 0h1m1 0h1m1 0h1m1 0h4"
     id="path2" />
</svg>
